<?xml version="1.0" encoding="UTF-8"?>
<svg width="200" height="200" viewBox="0 0 200 200" xmlns="http://www.w3.org/2000/svg">
  <!-- Definicje gradientów i cieni -->
  <defs>
    <!-- Gradient dla niebieskiego koła zębatego -->
    <linearGradient id="blueGearGradient" x1="0%" y1="0%" x2="0%" y2="100%">
      <stop offset="0%" stop-color="#64B5F6"/>
      <stop offset="100%" stop-color="#1E88E5"/>
    </linearGradient>

    <!-- Gradient dla pomarańczowego koła zębatego -->
    <linearGradient id="orangeGearGradient" x1="0%" y1="0%" x2="0%" y2="100%">
      <stop offset="0%" stop-color="#FFB74D"/>
      <stop offset="100%" stop-color="#F57C00"/>
    </linearGradient>

    <!-- Cień dla elementów -->
    <filter id="shadow" x="-20%" y="-20%" width="150%" height="150%">
      <feDropShadow dx="0" dy="2" stdDeviation="3" flood-color="#000000" flood-opacity="0.3"/>
    </filter>
  </defs>

  <!-- Tło -->
  <rect width="100%" height="100%" fill="white"/>

  <!-- Niebieskie koło zębate -->
  <g filter="url(#shadow)">
    <circle cx="70" cy="70" r="25" fill="url(#blueGearGradient)"/>
    <!-- Zęby koła -->
    <g fill="#1E88E5">
      <rect x="68" y="40" width="4" height="8"/>
      <rect x="68" y="92" width="4" height="8"/>
      <rect x="40" y="68" width="8" height="4"/>
      <rect x="92" y="68" width="8" height="4"/>
      <rect x="52" y="52" width="4" height="4" transform="rotate(-45 54 54)"/>
      <rect x="84" y="52" width="4" height="4" transform="rotate(45 86 54)"/>
      <rect x="52" y="84" width="4" height="4" transform="rotate(45 54 86)"/>
      <rect x="84" y="84" width="4" height="4" transform="rotate(-45 86 86)"/>
    </g>
    <!-- Otwór centralny -->
    <circle cx="70" cy="70" r="8" fill="#FFFFFF"/>
  </g>

  <!-- Pomarańczowe koło zębate -->
  <g filter="url(#shadow)">
    <circle cx="130" cy="130" r="25" fill="url(#orangeGearGradient)"/>
    <!-- Zęby koła -->
    <g fill="#F57C00">
      <rect x="128" y="100" width="4" height="8"/>
      <rect x="128" y="152" width="4" height="8"/>
      <rect x="100" y="128" width="8" height="4"/>
      <rect x="152" y="128" width="8" height="4"/>
      <rect x="112" y="112" width="4" height="4" transform="rotate(-45 114 114)"/>
      <rect x="144" y="112" width="4" height="4" transform="rotate(45 146 114)"/>
      <rect x="112" y="144" width="4" height="4" transform="rotate(45 114 146)"/>
      <rect x="144" y="144" width="4" height="4" transform="rotate(-45 146 146)"/>
    </g>
    <!-- Otwór centralny -->
    <circle cx="130" cy="130" r="8" fill="#FFFFFF"/>
  </g>

  <!-- Nawias kodu -->
  <g stroke="#37474F" stroke-width="4" fill="none" filter="url(#shadow)">
    <path d="M50 110 Q40 100 50 90" />
    <path d="M150 90 Q160 100 150 110" />
  </g>

</svg>
